<svg xmlns="http://www.w3.org/2000/svg" width="16" height="16" viewBox="0 0 24 24">
  <path fill="#2563eb" d="M12 2a10 10 0 100 20 10 10 0 000-20m1 14.5h-2v-2h2v2m2.3-7.1c-.2.4-.5.8-.9 1.1-.3.3-.7.6-1.2.9-.3.2-.6.4-.8.6-.2.2-.3.5-.3.9v.6h-2v-.8c0-.6.1-1.1.4-1.4.2-.4.6-.7 1-1 .4-.2.7-.5 1-.7.3-.2.5-.4.7-.7.2-.2.2-.5.2-.8 0-.4-.1-.7-.4-1-.3-.2-.7-.4-1.2-.4-.5 0-1 .1-1.5.4-.4.3-.7.7-.8 1.2l-1.9-.8c.3-.8.8-1.5 1.6-2 .7-.5 1.6-.7 2.7-.7 1.2 0 2.2.3 2.9.9.8.6 1.2 1.4 1.2 2.5 0 .5-.1 1-.4 1.4"/>
</svg>
